<?xml version="1.0" standalone="no"?>
<!DOCTYPE svg PUBLIC "-//W3C//DTD SVG 20010904//EN"
 "http://www.w3.org/TR/2001/REC-SVG-20010904/DTD/svg10.dtd">
<svg version="1.0" xmlns="http://www.w3.org/2000/svg"
 width="72.000000pt" height="72.000000pt" viewBox="0 0 72.000000 72.000000"
 preserveAspectRatio="xMidYMid meet">
<metadata>
Created by potrace 1.14, written by Peter Selinger 2001-2017
</metadata>
<g transform="translate(0.000000,72.000000) scale(0.100000,-0.100000)"
fill="#000000" stroke="none">
<path d="M555 683 c-33 -8 -62 -19 -66 -25 -4 -6 -12 -7 -18 -4 -7 5 -11 -4
-11 -23 0 -34 -6 -37 -33 -16 -18 13 -18 14 3 25 31 17 19 22 -19 9 -25 -9
-44 -8 -89 4 -85 24 -153 30 -236 22 -56 -5 -76 -11 -76 -21 0 -8 5 -14 12
-14 9 0 9 -3 1 -11 -12 -12 13 -141 28 -147 4 -2 5 -10 2 -18 -4 -10 2 -14 21
-14 27 0 31 -6 17 -29 -7 -11 -11 -10 -20 5 -9 16 -10 11 -9 -26 1 -25 -6 -72
-15 -105 -17 -59 -23 -225 -11 -272 7 -26 24 -31 24 -7 0 13 3 14 14 5 10 -9
29 -8 76 3 35 8 67 19 73 25 5 5 16 7 24 4 12 -5 14 0 8 26 -7 31 -6 32 14 19
12 -7 19 -19 16 -26 -3 -8 4 -12 23 -11 15 1 52 -5 82 -14 79 -22 160 -30 246
-22 53 5 74 11 74 21 0 8 -4 14 -10 14 -5 0 -7 7 -4 15 8 19 -17 145 -28 145
-4 0 -5 7 -2 15 5 12 -2 15 -30 15 -35 0 -35 1 -24 26 l12 25 18 -23 c15 -20
18 -21 18 -5 0 10 -4 27 -10 37 -7 13 -5 31 6 62 20 53 31 295 15 318 -9 12
-12 13 -20 1 -6 -9 -11 -10 -15 -2 -8 13 -3 13 -81 -6z m-55 -73 c0 -5 -2 -10
-4 -10 -3 0 -8 5 -11 10 -3 6 -1 10 4 10 6 0 11 -4 11 -10z m-95 -174 l50 -11
-1 -45 c0 -25 -6 -64 -13 -87 -11 -39 -15 -43 -43 -43 -18 0 -58 7 -90 16
l-59 17 6 41 c4 23 11 60 17 84 10 40 12 42 47 41 20 0 59 -6 86 -13z"/>
<path d="M370 360 c0 -49 -1 -50 -26 -44 -24 6 -25 5 -15 -15 15 -26 47 -27
61 -2 16 31 13 111 -5 111 -11 0 -15 -12 -15 -50z"/>
</g>
</svg>
